# xmcd
#
# Track frame offsets:
# 150
# 20985
# 43264
# 59580
# 63380
# 77190
# 112725
# 126765
# 148012
# 160226
# 181981
# 226659
# 250123
# 271278
# 291907
# 309435
# 324884
#
# Disc length: 4507 seconds
#
# Revision: 0
# Processed by: cddbd v1.4PL0 Copyright (c) Steve Scherf et al.
# Submitted via: Audion 3.0.2 (http://www.panic.com/audion/)
#
DISCID=f0119911
DTITLE=Muslimgauze - Uzbekistani Bizarre and Souk
DYEAR=1900
DGENRE=
TTITLE0=Abdul's Halal
TTITLE1=Cafkir Wa Higra
TTITLE2=With Indian Rope
TTITLE3=Glass Mughal
TTITLE4=The Iranian Who Found Allah
TTITLE5=Harijana
TTITLE6=Route Amin Fraction
TTITLE7=Glass Mughal
TTITLE8=Cafkir Ma Higra
TTITLE9=Adbul's Halal
TTITLE10=Paper Gulag
TTITLE11=Paper Gulag
TTITLE12=Leboneeze
TTITLE13=Khadija And Foreshta
TTITLE14=The Ottoman Muzeum Of Cherised Momentos
TTITLE15=The Limb Amputator Of Rinash
TTITLE16=The Iraqi Who Grew Orchids
EXTD=
EXTT0=
EXTT1=
EXTT2=
EXTT3=
EXTT4=
EXTT5=
EXTT6=
EXTT7=
EXTT8=
EXTT9=
EXTT10=
EXTT11=
EXTT12=
EXTT13=
EXTT14=
EXTT15=
EXTT16=
PLAYORDER=
